# xmcd
#
# Track frame offsets:
#	150
#	11517
#	32275
#	53717
#	77692
#	94242
#	116152
#	133840
#	143352
#	161282
#	184170
#	207950
#	225045
#	249262
#	272745
#	279130
#
# Disc length: 4013 seconds
#
# Revision: 1
# Processed by: cddbd v1.5.1PL0 Copyright (c) Steve Scherf et al.
# Submitted via: CDex 1.50Beta5
#
DISCID=c00fab10
DTITLE=伊藤多賀之 - 一人七役ライブ2003
DYEAR=1900
DGENRE=Pop
TTITLE0=柴門たか/プロデューサー挨拶(VTR)
TTITLE1=伊藤多賀之/人工フカ
TTITLE2=伊藤多賀之/公園
TTITLE3=伊藤多賀之/クーピーの誕生
TTITLE4=伊藤多賀之/ユニットバス
TTITLE5=伊藤多賀之/ねじれの位置
TTITLE6=伊藤多賀之/ちょっとトイレタイム(VTR)
TTITLE7=伊藤多賀之/ムンクの叫び声
TTITLE8=伊藤多賀之/団地妻の説教
TTITLE9=伊藤多賀之/スペアキー
TTITLE10=伊藤多賀之/ミジンコフェチ
TTITLE11=伊藤多賀之/ねこまんま
TTITLE12=コインロッカー/ハードロックタイム
TTITLE13=伊藤多賀之/月の裏側
TTITLE14=伊藤多賀之/メンバー紹介
TTITLE15=伊藤多賀之/ホルモンを飲む瞬間
EXTD=
EXTT0=
EXTT1=
EXTT2=
EXTT3=
EXTT4=
EXTT5=
EXTT6=
EXTT7=
EXTT8=
EXTT9=
EXTT10=
EXTT11=
EXTT12=
EXTT13=
EXTT14=
EXTT15=
PLAYORDER=
